<svg xmlns="http://www.w3.org/2000/svg" xmlns:xlink="http://www.w3.org/1999/xlink" viewBox="0 0 37.56 77.32"><defs><style>.cls-1{isolation:isolate;}.cls-2{fill:#c5e3e2;}.cls-3{fill:#dcfaf9;}.cls-4{fill:url(#linear-gradient);}.cls-5{opacity:0.5;mix-blend-mode:screen;}.cls-6,.cls-7{fill:#fff;}.cls-7{opacity:0.6;}.cls-8{fill:#1d1d1b;opacity:0.05;}</style><linearGradient id="linear-gradient" x1="18.78" y1="36.9" x2="18.78" y2="9.42" gradientUnits="userSpaceOnUse"><stop offset="0" stop-color="#6a1622"/><stop offset="0.19" stop-color="#711622"/><stop offset="0.45" stop-color="#831622"/><stop offset="0.76" stop-color="#a11622"/><stop offset="1" stop-color="#be1622"/></linearGradient></defs><g class="cls-1"><g id="Слой_2" data-name="Слой 2"><g id="Layer_5" data-name="Layer 5"><path class="cls-2" d="M18.78,36.9a14.53,14.53,0,0,1-6.61-2.09C5.39,30.7,1,21,1,10.15A37.79,37.79,0,0,1,2.36,0h-1A39,39,0,0,0,0,10.15C0,21.66,4.81,31.52,11.66,35.66a11.55,11.55,0,0,1,5.55,9.86v25a4.1,4.1,0,0,1-3.53,4.06L4.32,75.9a.71.71,0,0,0,.09,1.42H33.14a.71.71,0,0,0,.1-1.42l-9.36-1.3a4.09,4.09,0,0,1-3.53-4.06v-25a11.55,11.55,0,0,1,5.55-9.86c6.84-4.14,11.66-14,11.66-25.51A39,39,0,0,0,36.21,0h-1a37.79,37.79,0,0,1,1.36,10.15c0,10.86-4.39,20.55-11.18,24.66A14.41,14.41,0,0,1,18.78,36.9Z"/><path class="cls-2" d="M2.36,0A37.79,37.79,0,0,0,1,10.15C1,21,5.39,30.7,12.17,34.81a14.53,14.53,0,0,0,6.61,2.09,14.41,14.41,0,0,0,6.6-2.09C32.17,30.7,36.56,21,36.56,10.15A37.79,37.79,0,0,0,35.2,0Z"/><path class="cls-2" d="M18.78,36.9a14.53,14.53,0,0,1-6.61-2.09C5.39,30.7,1,21,1,10.15A37.79,37.79,0,0,1,2.36,0h-1A39,39,0,0,0,0,10.15C0,21.66,4.81,31.52,11.66,35.66a11.55,11.55,0,0,1,5.55,9.86v25a4.1,4.1,0,0,1-3.53,4.06L4.32,75.9a.71.71,0,0,0,.09,1.42H33.14a.71.71,0,0,0,.1-1.42l-9.36-1.3a4.09,4.09,0,0,1-3.53-4.06v-25a11.55,11.55,0,0,1,5.55-9.86c6.84-4.14,11.66-14,11.66-25.51A39,39,0,0,0,36.21,0h-1a37.79,37.79,0,0,1,1.36,10.15c0,10.86-4.39,20.55-11.18,24.66A14.41,14.41,0,0,1,18.78,36.9Z"/><path class="cls-3" d="M2.36,0A37.79,37.79,0,0,0,1,10.15C1,21,5.39,30.7,12.17,34.81a14.53,14.53,0,0,0,6.61,2.09,14.41,14.41,0,0,0,6.6-2.09C32.17,30.7,36.56,21,36.56,10.15A37.79,37.79,0,0,0,35.2,0Z"/><path class="cls-4" d="M1,9.42c0,.24,0,.48,0,.73C1,21,5.39,30.7,12.17,34.81a14.53,14.53,0,0,0,6.61,2.09,14.41,14.41,0,0,0,6.6-2.09C32.17,30.7,36.56,21,36.56,10.15c0-.25,0-.49,0-.73Z"/><g class="cls-5"><path class="cls-6" d="M7.54,9.9A47.4,47.4,0,0,1,8.43.75H4.31A34.76,34.76,0,0,0,3,10.48C3,20.89,7.34,30.17,14.13,34.12a15.78,15.78,0,0,0,1.76.87C10.74,29.61,7.54,20.25,7.54,9.9Z"/></g><path class="cls-7" d="M13.42,75.73c0-.12.62,0,1.53-.44a4.22,4.22,0,0,0,1.43-1.09,4.54,4.54,0,0,0,1.1-2.09c.53-1.71.36-4,.31-6.47s-.1-5.26-.15-8.15-.05-5.64-.06-8.15.08-4.77-.11-6.59a8.35,8.35,0,0,0-1.39-4c-.59-.83-1.08-1.17-1-1.26s.62.17,1.38,1a8,8,0,0,1,1.85,4.21,59.73,59.73,0,0,1,.37,6.7c0,2.51.1,5.26.15,8.15s0,5.64.06,8.15.1,4.83-.6,6.74a5.07,5.07,0,0,1-1.42,2.29,4.43,4.43,0,0,1-1.73,1.06C14,76,13.4,75.77,13.42,75.73Z"/><path class="cls-8" d="M33.24,75.9l-9.36-1.3a4.09,4.09,0,0,1-3.53-4.06v-25a11.55,11.55,0,0,1,5.55-9.86c6.84-4.14,11.66-14,11.66-25.51A39,39,0,0,0,36.21,0H18.78V77.32H33.14a.71.71,0,0,0,.1-1.42Z"/></g></g></g></svg>