<?xml version="1.0" encoding="iso-8859-1"?>
<!-- Generator: Adobe Illustrator 19.0.0, SVG Export Plug-In . SVG Version: 6.00 Build 0)  -->
<svg version="1.1" id="Capa_1" xmlns="http://www.w3.org/2000/svg" xmlns:xlink="http://www.w3.org/1999/xlink" x="0px" y="0px"
	 viewBox="0 0 375 375" style="enable-background:new 0 0 375 375;" xml:space="preserve">
<g>
	<g>
		<path d="M219.985,165.675V89.404h2.229c2.762,0,5-2.238,5-5s-2.238-5-5-5h-16.588v-2.472c13.76-6.836,22.475-20.747,22.475-36.332
			c0-11.198-4.693-22.009-12.876-29.66c-8.298-7.76-19.145-11.602-30.518-10.847c-19.786,1.329-35.974,17.219-37.656,36.961
			c-1.438,16.874,7.433,32.484,22.323,39.879v2.471h-16.588c-2.762,0-5,2.238-5,5s2.238,5,5,5h2.229v76.271
			c-46.431,14.175-78.529,57.285-78.529,106.163c0,42.275,23.504,80.317,61.339,99.28c5.066,2.539,10.787,3.882,16.544,3.882h66.264
			c5.757,0,11.478-1.343,16.54-3.882c37.836-18.963,61.341-57.005,61.341-99.28C298.514,222.96,266.417,179.85,219.985,165.675z
			 M157.015,37.904c1.265-14.866,13.459-26.832,28.362-27.833c8.592-0.572,16.765,2.326,23.018,8.173
			c6.259,5.852,9.706,13.792,9.706,22.356c0,12.62-7.583,23.785-19.319,28.445c-1.905,0.756-3.155,2.598-3.155,4.647v5.712h-16.252
			h-0.001v-5.712c0-2.048-1.251-3.89-3.155-4.647C163.574,64.025,155.856,51.51,157.015,37.904z M195.627,89.676v15.538
			c0,0.876-0.712,1.588-1.588,1.588h-13.076c-0.876,0-1.588-0.712-1.588-1.588V89.676H195.627z M161.31,174.272
			c2.186-0.586,3.707-2.566,3.707-4.83V89.676h4.359v15.538c0,6.39,5.198,11.588,11.588,11.588h13.076
			c6.39,0,11.588-5.198,11.588-11.588V89.676h4.359v79.766c0,2.264,1.52,4.244,3.707,4.83c26.753,7.165,48.609,24.777,61.647,47.728
			h-147.61c8.644-10.441,17.351-16.71,17.632-16.909c2.259-1.588,2.804-4.706,1.216-6.966c-1.588-2.259-4.707-2.803-6.966-1.216
			c-0.923,0.649-13.833,9.87-24.575,25.091H99.663C112.701,199.048,134.556,181.436,161.31,174.272z M232.694,362.179
			c-3.681,1.845-7.852,2.821-12.061,2.821h-66.264c-4.209,0-8.38-0.975-12.063-2.821c-34.431-17.257-55.82-51.874-55.82-90.341
			c0-14.02,2.903-27.522,8.202-39.838h14.187c-4.898,9.267-8.389,20.061-8.389,32c0,2.762,2.238,5,5,5c2.762,0,5-2.238,5-5
			c0-12.051,4.364-22.949,10.005-32h159.823c5.299,12.317,8.202,25.818,8.202,39.838
			C288.516,310.305,267.127,344.921,232.694,362.179z"/>
	</g>
</g>
<g>
</g>
<g>
</g>
<g>
</g>
<g>
</g>
<g>
</g>
<g>
</g>
<g>
</g>
<g>
</g>
<g>
</g>
<g>
</g>
<g>
</g>
<g>
</g>
<g>
</g>
<g>
</g>
<g>
</g>
</svg>
