<svg viewBox="-46 0 511 512" xmlns="http://www.w3.org/2000/svg"><path d="m417.71875 3.078125c-1.890625-1.96875-4.488281-3.078125-7.21875-3.078125h-400c-2.730469 0-5.339844 1.109375-7.21875 3.078125-1.890625 1.972656-2.890625 4.632813-2.773438 7.351563l19.992188 461.800781c.121094 21.949219 18.019531 39.769531 40 39.769531h310c16.460938 0 29.871094-13.328125 30-29.769531l1.429688-33.679688v-.101562l18.558593-438.027344c.121094-2.722656-.878906-5.371094-2.769531-7.34375zm-137.21875 328.921875h-60c-5.519531 0-10 4.480469-10 10v50h-28.640625l25.800781-28.539062c1.78125-1.972657 2.710938-4.5625 2.570313-7.210938-.128907-2.648438-1.3125-5.140625-3.28125-6.921875l-44.507813-40.226563c-4.101562-3.703124-10.421875-3.382812-14.132812.707032l-40.230469 44.511718c-1.777344 1.96875-2.699219 4.570313-2.570313 7.210938.140626 2.648438 1.320313 5.140625 3.28125 6.917969l24.710938 22.332031c-22.300781-5.019531-39-24.992188-39-48.78125 0-.199219-.011719-.398438-.019531-.601562l-11.929688-198.269532c5.859375-5.550781 19.859375-17.867187 38.199219-27.738281 31.210938-16.800781 59.929688-19.0625 85.398438-6.730469 1.390624.660156 2.671874 1.25 3.902343 1.789063 30.617188 13.261719 66.429688 10.570312 103.550781-7.789063 11.109376-5.5 20.738282-11.601562 28.316407-16.941406l-15.398438 255.679688c-.011719.203124-.019531.402343-.019531.601562 0 22.710938-15.21875 41.929688-36 48v-48c0-5.519531-4.480469-10-10-10zm-10 20v40h-40v-40zm-111.199219 35.140625-29.679687-26.820313 26.828125-29.679687 29.671875 26.828125zm186.578125-367.140625-2.359375 39.230469c-13.480469 11.378906-71.609375 56.21875-125.53125 32.859375-.988281-.429688-2.019531-.898438-3.128906-1.441406-54.679687-26.457032-108.019531 6.5-133.828125 27.273437l-5.910156-97.921875zm36.480469 418h-70.417969c-5.523437 0-10 4.480469-10 10s4.476563 10 10 10h69.566406l-1 23.578125c-.007812.140625-.007812.28125-.007812.421875 0 5.511719-4.492188 10-10 10h-310c-11.03125 0-20-8.96875-20-20 0-.140625 0-.289062-.011719-.429688l-19.546875-451.570312h34.136719l7.222656 119.710938.007813.089843v.007813l12.191406 202.5c.167969 38.460937 31.507812 69.691406 70 69.691406h132c2.140625 0 4.269531-.101562 6.371094-.289062.007812.007812.007812 0 .019531 0 35.507813-3.230469 63.449219-33.089844 63.609375-69.402344l16.730469-277.707032 2.6875-44.601562h34.152343zm0 0"/><path d="m271.960938 458c-5.523438 0-10.003907-4.476562-10.003907-10s4.472657-10 9.992188-10h.011719c5.523437 0 10 4.476562 10 10s-4.476563 10-10 10zm0 0"/></svg>