<?xml version="1.0" encoding="iso-8859-1"?>
<!-- Generator: Adobe Illustrator 19.0.0, SVG Export Plug-In . SVG Version: 6.00 Build 0)  -->
<svg version="1.1" id="Capa_1" xmlns="http://www.w3.org/2000/svg" xmlns:xlink="http://www.w3.org/1999/xlink" x="0px" y="0px"
	 viewBox="0 0 413.739 413.739" style="enable-background:new 0 0 413.739 413.739;" xml:space="preserve">
<g>
	<g>
		<g>
			<path d="M310.618,248.76c-7.627-17.16-19.352-24.445-34.198-33.669c-5.635-3.501-12.022-7.47-18.862-12.428
				c-14.515-10.524-13.035-17.197-10.347-29.31c1.226-5.528,2.616-11.794,2.616-19.293c0-12.921-3.46-27.067-6.807-40.748
				c-2.796-11.433-5.438-22.231-5.438-30.269c0-10.388,2.497-18.187,4.592-22.9c2.042-4.594,1.264-10.083-1.983-13.982l-0.899-1.079
				l6.223-24.004c1.621-6.252-2.125-12.734-8.35-14.451l-17.979-4.96c-8.058-2.223-16.575-2.223-24.631,0l-17.979,4.96
				c-6.226,1.717-9.972,8.199-8.351,14.451l6.223,24.004l-0.9,1.08c-3.247,3.898-4.025,9.385-1.982,13.981
				c2.094,4.712,4.591,12.51,4.591,22.9c0,8.039-2.642,18.836-5.438,30.269c-3.347,13.681-6.807,27.827-6.807,40.748
				c0,7.499,1.39,13.765,2.617,19.294c2.687,12.113,4.167,18.786-10.347,29.309c-6.84,4.958-13.227,8.927-18.863,12.428
				c-14.845,9.224-26.571,16.509-34.197,33.669c-9.325,20.978-7.1,56.663,5.952,95.456c8.055,23.941,17.319,47.989,22.125,60.192
				c2.233,5.668,7.614,9.331,13.712,9.331h123.915c6.097,0,11.479-3.662,13.714-9.331c4.809-12.213,14.078-36.272,22.126-60.192
				C317.717,305.424,319.942,269.739,310.618,248.76z M179.233,16.268l17.979-4.96c6.318-1.744,12.996-1.744,19.312,0l17.979,4.96
				c0.991,0.274,1.587,1.305,1.329,2.301l-5.896,22.743H183.8l-5.897-22.743C177.646,17.574,178.241,16.541,179.233,16.268z
				 M180.432,115.69c2.944-12.035,5.724-23.401,5.724-32.645c0-12.144-2.965-21.364-5.453-26.961
				c-0.508-1.144-0.301-2.526,0.527-3.52l1.043-1.252h49.191l1.043,1.25c0.828,0.996,1.036,2.377,0.527,3.521
				c-2.487,5.597-5.453,14.818-5.453,26.961c0,9.245,2.781,20.611,5.724,32.645c2.791,11.407,5.664,23.154,6.361,33.733h-10.96
				c-1.849-13.299-10.937-23.428-21.837-23.428c-10.9,0-19.989,10.13-21.838,23.429h-10.96
				C174.768,138.844,177.641,127.097,180.432,115.69z M219.05,154.422c0,9.99-5.578,18.428-12.181,18.428
				c-6.603,0-12.181-8.438-12.181-18.428s5.578-18.429,12.181-18.429C213.472,135.993,219.05,144.432,219.05,154.422z
				 M295.185,341.026c-7.977,23.712-17.178,47.593-21.952,59.718c-0.717,1.819-2.446,2.995-4.407,2.995H144.911
				c-1.961,0-3.691-1.176-4.407-2.995c-4.771-12.115-13.968-35.985-21.953-59.718c-12.09-35.936-14.501-69.734-6.292-88.206
				c6.378-14.349,15.909-20.271,30.337-29.235c5.778-3.589,12.327-7.658,19.455-12.826c19.829-14.377,17.114-26.614,14.24-39.57
				c-0.831-3.741-1.68-7.571-2.104-11.767h10.844c1.849,13.299,10.939,23.428,21.838,23.428s19.988-10.129,21.837-23.428h10.844
				c-0.425,4.197-1.275,8.027-2.104,11.767c-2.874,12.956-5.589,25.193,14.24,39.57c7.128,5.168,13.677,9.236,19.454,12.826
				c14.428,8.964,23.959,14.885,30.337,29.235C309.687,271.292,307.276,305.09,295.185,341.026z"/>
			<path d="M206.869,224.914c-32.874,0-58.625,16.28-58.625,37.064s25.751,37.064,58.625,37.064
				c32.874,0,58.625-16.28,58.625-37.064S239.744,224.914,206.869,224.914z M206.869,289.041c-26.357,0-48.625-12.394-48.625-27.064
				c0-14.67,22.267-27.064,48.625-27.064c26.358,0,48.625,12.394,48.625,27.064C255.494,276.647,233.226,289.041,206.869,289.041z"
				/>
		</g>
	</g>
</g>
<g>
</g>
<g>
</g>
<g>
</g>
<g>
</g>
<g>
</g>
<g>
</g>
<g>
</g>
<g>
</g>
<g>
</g>
<g>
</g>
<g>
</g>
<g>
</g>
<g>
</g>
<g>
</g>
<g>
</g>
</svg>
