<svg xmlns="http://www.w3.org/2000/svg" xmlns:xlink="http://www.w3.org/1999/xlink" viewBox="0 0 45.56 60.05"><defs><style>.cls-1{isolation:isolate;}.cls-2{fill:#c5e3e2;}.cls-3{fill:#dcfaf9;}.cls-4{fill:url(#linear-gradient);}.cls-5{opacity:0.5;mix-blend-mode:screen;}.cls-6,.cls-7{fill:#fff;}.cls-7{opacity:0.6;}.cls-8{fill:#1d1d1b;opacity:0.05;}</style><linearGradient id="linear-gradient" x1="22.78" y1="28.66" x2="22.78" y2="7.31" gradientUnits="userSpaceOnUse"><stop offset="0" stop-color="#e4b864"/><stop offset="0.27" stop-color="#e8bf65"/><stop offset="0.64" stop-color="#f2d166"/><stop offset="1" stop-color="#ffe968"/></linearGradient></defs><g class="cls-1"><g id="Слой_2" data-name="Слой 2"><g id="Layer_5" data-name="Layer 5"><path class="cls-2" d="M22.78,28.66a24.39,24.39,0,0,1-8-1.63A20.63,20.63,0,0,1,1.21,7.88,19.64,19.64,0,0,1,2.86,0H1.64A20,20,0,0,0,0,7.88c0,8.94,5.84,16.6,14.14,19.82,4.17,1.62,6.74,4.52,6.74,7.65V54.78c0,1.59-1.83,2.94-4.29,3.15L5.23,59c-.44,0-.77.29-.74.58s.41.52.86.52H40.2c.46,0,.83-.22.87-.52s-.3-.54-.75-.58L29,57.93c-2.46-.21-4.29-1.56-4.29-3.15V35.35c0-3.13,2.56-6,6.74-7.65,8.3-3.22,14.14-10.88,14.14-19.82A20,20,0,0,0,43.92,0H42.7a19.63,19.63,0,0,1,1.64,7.88A20.64,20.64,0,0,1,30.79,27,24.39,24.39,0,0,1,22.78,28.66Z"/><path class="cls-2" d="M2.86,0A19.64,19.64,0,0,0,1.21,7.88,20.63,20.63,0,0,0,14.77,27a24.39,24.39,0,0,0,8,1.63,24.39,24.39,0,0,0,8-1.63A20.64,20.64,0,0,0,44.34,7.88,19.63,19.63,0,0,0,42.7,0Z"/><path class="cls-2" d="M22.78,28.66a24.39,24.39,0,0,1-8-1.63A20.63,20.63,0,0,1,1.21,7.88,19.64,19.64,0,0,1,2.86,0H1.64A20,20,0,0,0,0,7.88c0,8.94,5.84,16.6,14.14,19.82,4.17,1.62,6.74,4.52,6.74,7.65V54.78c0,1.59-1.83,2.94-4.29,3.15L5.23,59c-.44,0-.77.29-.74.58s.41.52.86.52H40.2c.46,0,.83-.22.87-.52s-.3-.54-.75-.58L29,57.93c-2.46-.21-4.29-1.56-4.29-3.15V35.35c0-3.13,2.56-6,6.74-7.65,8.3-3.22,14.14-10.88,14.14-19.82A20,20,0,0,0,43.92,0H42.7a19.63,19.63,0,0,1,1.64,7.88A20.64,20.64,0,0,1,30.79,27,24.39,24.39,0,0,1,22.78,28.66Z"/><path class="cls-3" d="M2.86,0A19.64,19.64,0,0,0,1.21,7.88,20.63,20.63,0,0,0,14.77,27a24.39,24.39,0,0,0,8,1.63,24.39,24.39,0,0,0,8-1.63A20.64,20.64,0,0,0,44.34,7.88,19.63,19.63,0,0,0,42.7,0Z"/><path class="cls-4" d="M1.24,7.31c0,.19,0,.38,0,.57A20.63,20.63,0,0,0,14.77,27a24.39,24.39,0,0,0,8,1.63,24.39,24.39,0,0,0,8-1.63A20.64,20.64,0,0,0,44.34,7.88c0-.19,0-.38,0-.57Z"/><g class="cls-5"><path class="cls-6" d="M9.14,7.69A24.26,24.26,0,0,1,10.22.58h-5A18.19,18.19,0,0,0,3.58,8.14c0,8.09,5.32,15.29,13.56,18.36,0,0,.86.33,2.14.68A23.32,23.32,0,0,1,9.14,7.69Z"/></g><path class="cls-7" d="M16.1,59.06a8.16,8.16,0,0,1,1.34-.24A11.78,11.78,0,0,0,19,58.43a6.55,6.55,0,0,0,1.81-.84,2.27,2.27,0,0,0,.35-.34,1.74,1.74,0,0,0,.11-.18c0-.08.05-.18.08-.27a5.1,5.1,0,0,0,.29-1.21,17.78,17.78,0,0,0,.09-2.88c0-2.09,0-4.39-.06-6.79s0-4.71,0-6.8a43.36,43.36,0,0,0-.08-5.47,6.33,6.33,0,0,0-1.29-3.27c-.53-.65-.95-.91-.91-1s.55.07,1.25.69a6.23,6.23,0,0,1,1.77,3.44,33.2,33.2,0,0,1,.34,5.61c0,2.09,0,4.38.06,6.79s0,4.7,0,6.8a16.82,16.82,0,0,1-.21,3,6.28,6.28,0,0,1-.4,1.38c-.05.11-.08.21-.13.32a2.38,2.38,0,0,1-.24.35,2.93,2.93,0,0,1-.55.47,7,7,0,0,1-2.11.8,10.36,10.36,0,0,1-1.64.21C16.58,59.31,16.08,59.14,16.1,59.06Z"/><path class="cls-8" d="M40.2,60.05c.46,0,.83-.22.87-.52s-.3-.54-.75-.58L29,57.93c-2.46-.21-4.29-1.56-4.29-3.15V35.35c0-3.13,2.56-6,6.74-7.65,8.3-3.22,14.14-10.88,14.14-19.82A20,20,0,0,0,43.92,0H22.78V60.05Z"/></g></g></g></svg>