<svg viewBox="0 0 128 128" xmlns="http://www.w3.org/2000/svg"><g><path d="m92.621 60.377a34.717 34.717 0 0 0 4.537-31.889l-7.928-22.757a1.75 1.75 0 0 0 -1.652-1.174h-47.156a1.75 1.75 0 0 0 -1.652 1.174l-7.928 22.757a35.14 35.14 0 0 0 26.841 46.112v38.482l-18.459 6.98a1.75 1.75 0 0 0 .619 3.386h48.314a1.75 1.75 0 0 0 .619-3.386l-18.459-6.98v-38.482a34.654 34.654 0 0 0 22.304-14.223zm-54.389-2.028a31.252 31.252 0 0 1 -4.084-28.709l7.518-21.583h44.668l7.518 21.583a31.611 31.611 0 0 1 -55.62 28.709zm29.716 57.573 10.634 4.021h-29.164l10.634-4.021a1.75 1.75 0 0 0 1.131-1.636v-39.259c.931.073 1.869.122 2.817.122s1.886-.049 2.817-.122v39.259a1.75 1.75 0 0 0 1.131 1.636z"/><path d="m86.623 56.074a27.436 27.436 0 0 0 3.586-25.206l-1.023-2.939a1.75 1.75 0 0 0 -2.834-.715c-.1.087-9.684 8.665-21.563 2.667a28.786 28.786 0 0 0 -26.22.046 1.749 1.749 0 0 0 -.778.941 27.753 27.753 0 0 0 48.832 25.206zm-42.393-2.028a23.959 23.959 0 0 1 -3.35-21.38 25.353 25.353 0 0 1 22.331.339c10.519 5.311 19.554.9 23.453-1.677l.24.691a24.253 24.253 0 0 1 -42.674 22.027z"/><path d="m70.917 15.891h10.195a1.75 1.75 0 0 0 0-3.5h-10.195a1.75 1.75 0 0 0 0 3.5z"/><path d="m58.662 15.891h4.5a1.75 1.75 0 0 0 0-3.5h-4.5a1.75 1.75 0 0 0 0 3.5z"/></g></svg>